<mxfile host="app.diagrams.net" modified="2023-06-08T06:29:56.645Z" agent="Mozilla/5.0 (Windows NT 10.0; Win64; x64) AppleWebKit/537.36 (KHTML, like Gecko) Chrome/114.0.0.0 Safari/537.36" etag="pAu4IlABmAhA3fVtOGo7" version="21.3.7" type="github">
  <diagram name="第 1 页" id="xpbepWG16Okc6fEYGjdt">
    <mxGraphModel dx="1050" dy="-652" grid="1" gridSize="10" guides="1" tooltips="1" connect="1" arrows="1" fold="1" page="1" pageScale="1" pageWidth="827" pageHeight="1169" math="0" shadow="0">
      <root>
        <mxCell id="0" />
        <mxCell id="1" parent="0" />
        <mxCell id="06lUisDhyo9jP5oIaOcE-1" value="" style="rounded=0;whiteSpace=wrap;html=1;" vertex="1" parent="1">
          <mxGeometry x="520" y="1290.63" width="410" height="440" as="geometry" />
        </mxCell>
        <mxCell id="06lUisDhyo9jP5oIaOcE-2" value="&lt;div style=&quot;font-family: &amp;quot;JetBrains Mono&amp;quot;, &amp;quot;Fira Code&amp;quot;, Menlo, Monaco, &amp;quot;Courier New&amp;quot;, monospace, Consolas, &amp;quot;Courier New&amp;quot;, monospace; line-height: 24px;&quot;&gt;&lt;font style=&quot;font-size: 14px;&quot;&gt;http_requests&lt;/font&gt;&lt;/div&gt;" style="rounded=0;whiteSpace=wrap;html=1;" vertex="1" parent="1">
          <mxGeometry x="35" y="1400" width="120" height="60" as="geometry" />
        </mxCell>
        <mxCell id="06lUisDhyo9jP5oIaOcE-3" value="" style="rounded=0;whiteSpace=wrap;html=1;" vertex="1" parent="1">
          <mxGeometry x="535" y="1340.63" width="170" height="370" as="geometry" />
        </mxCell>
        <mxCell id="06lUisDhyo9jP5oIaOcE-4" value="" style="rounded=0;whiteSpace=wrap;html=1;" vertex="1" parent="1">
          <mxGeometry x="745" y="1340.63" width="170" height="370" as="geometry" />
        </mxCell>
        <mxCell id="06lUisDhyo9jP5oIaOcE-5" value="&lt;font style=&quot;font-size: 14px;&quot;&gt;&lt;b&gt;request&lt;/b&gt;&lt;/font&gt;" style="text;html=1;strokeColor=none;fillColor=none;align=center;verticalAlign=middle;whiteSpace=wrap;rounded=0;" vertex="1" parent="1">
          <mxGeometry x="530" y="1300.63" width="60" height="30" as="geometry" />
        </mxCell>
        <mxCell id="06lUisDhyo9jP5oIaOcE-6" value="&lt;font style=&quot;font-size: 14px;&quot;&gt;&lt;b&gt;response&lt;/b&gt;&lt;/font&gt;" style="text;html=1;strokeColor=none;fillColor=none;align=center;verticalAlign=middle;whiteSpace=wrap;rounded=0;" vertex="1" parent="1">
          <mxGeometry x="745" y="1300.63" width="60" height="30" as="geometry" />
        </mxCell>
        <mxCell id="06lUisDhyo9jP5oIaOcE-7" value="&lt;font style=&quot;font-size: 14px;&quot;&gt;method&lt;/font&gt;" style="rounded=0;whiteSpace=wrap;html=1;" vertex="1" parent="1">
          <mxGeometry x="565" y="1400.63" width="115" height="30" as="geometry" />
        </mxCell>
        <mxCell id="06lUisDhyo9jP5oIaOcE-8" value="&lt;font style=&quot;font-size: 14px;&quot;&gt;url&lt;/font&gt;" style="rounded=0;whiteSpace=wrap;html=1;fillColor=#d5e8d4;strokeColor=#82b366;" vertex="1" parent="1">
          <mxGeometry x="565" y="1450.63" width="115" height="30" as="geometry" />
        </mxCell>
        <mxCell id="06lUisDhyo9jP5oIaOcE-9" value="&lt;font style=&quot;font-size: 14px;&quot;&gt;request_address&lt;/font&gt;" style="rounded=0;whiteSpace=wrap;html=1;" vertex="1" parent="1">
          <mxGeometry x="565" y="1350.63" width="115" height="30" as="geometry" />
        </mxCell>
        <mxCell id="06lUisDhyo9jP5oIaOcE-10" value="&lt;font style=&quot;font-size: 14px;&quot;&gt;request&lt;/font&gt;" style="rounded=0;whiteSpace=wrap;html=1;" vertex="1" parent="1">
          <mxGeometry x="565" y="1501.88" width="115" height="30" as="geometry" />
        </mxCell>
        <mxCell id="06lUisDhyo9jP5oIaOcE-11" value="&lt;font style=&quot;font-size: 14px;&quot;&gt;request_header&lt;/font&gt;" style="rounded=0;whiteSpace=wrap;html=1;" vertex="1" parent="1">
          <mxGeometry x="565" y="1550.63" width="115" height="30" as="geometry" />
        </mxCell>
        <mxCell id="06lUisDhyo9jP5oIaOcE-12" value="&lt;font style=&quot;font-size: 14px;&quot;&gt;request_body&lt;/font&gt;" style="rounded=0;whiteSpace=wrap;html=1;" vertex="1" parent="1">
          <mxGeometry x="565" y="1610.63" width="115" height="30" as="geometry" />
        </mxCell>
        <mxCell id="06lUisDhyo9jP5oIaOcE-13" value="&lt;font style=&quot;font-size: 14px;&quot;&gt;request_complete_flag&lt;/font&gt;" style="rounded=0;whiteSpace=wrap;html=1;" vertex="1" parent="1">
          <mxGeometry x="555" y="1660.63" width="130" height="30" as="geometry" />
        </mxCell>
        <mxCell id="06lUisDhyo9jP5oIaOcE-14" value="&lt;font style=&quot;font-size: 14px;&quot;&gt;response_address&lt;/font&gt;" style="rounded=0;whiteSpace=wrap;html=1;" vertex="1" parent="1">
          <mxGeometry x="775" y="1370.63" width="115" height="39.37" as="geometry" />
        </mxCell>
        <mxCell id="06lUisDhyo9jP5oIaOcE-15" value="&lt;font style=&quot;font-size: 14px;&quot;&gt;response&lt;/font&gt;" style="rounded=0;whiteSpace=wrap;html=1;" vertex="1" parent="1">
          <mxGeometry x="775" y="1445.7600000000002" width="115" height="29.37" as="geometry" />
        </mxCell>
        <mxCell id="06lUisDhyo9jP5oIaOcE-16" value="&lt;font style=&quot;font-size: 14px;&quot;&gt;response_header&lt;/font&gt;" style="rounded=0;whiteSpace=wrap;html=1;" vertex="1" parent="1">
          <mxGeometry x="775" y="1520" width="115" height="30" as="geometry" />
        </mxCell>
        <mxCell id="06lUisDhyo9jP5oIaOcE-17" value="&lt;font style=&quot;font-size: 14px;&quot;&gt;response_body&lt;/font&gt;" style="rounded=0;whiteSpace=wrap;html=1;fillColor=#d5e8d4;strokeColor=#82b366;" vertex="1" parent="1">
          <mxGeometry x="775" y="1595.63" width="115" height="29.37" as="geometry" />
        </mxCell>
        <mxCell id="06lUisDhyo9jP5oIaOcE-18" value="&lt;font style=&quot;font-size: 14px;&quot;&gt;response_complete_flag&lt;/font&gt;" style="rounded=0;whiteSpace=wrap;html=1;" vertex="1" parent="1">
          <mxGeometry x="762.5" y="1660.63" width="135" height="30" as="geometry" />
        </mxCell>
        <mxCell id="06lUisDhyo9jP5oIaOcE-19" value="" style="rounded=0;whiteSpace=wrap;html=1;rotation=90;" vertex="1" parent="1">
          <mxGeometry x="255" y="1294.38" width="117.5" height="142.5" as="geometry" />
        </mxCell>
        <mxCell id="06lUisDhyo9jP5oIaOcE-20" value="" style="endArrow=none;html=1;rounded=0;exitX=0.25;exitY=1;exitDx=0;exitDy=0;entryX=0.25;entryY=0;entryDx=0;entryDy=0;" edge="1" parent="1" source="06lUisDhyo9jP5oIaOcE-19" target="06lUisDhyo9jP5oIaOcE-19">
          <mxGeometry width="50" height="50" relative="1" as="geometry">
            <mxPoint x="387.5" y="1391.88" as="sourcePoint" />
            <mxPoint x="437.5" y="1341.88" as="targetPoint" />
          </mxGeometry>
        </mxCell>
        <mxCell id="06lUisDhyo9jP5oIaOcE-21" value="&lt;b&gt;&lt;font style=&quot;font-size: 13px;&quot;&gt;key: string&lt;/font&gt;&lt;/b&gt;" style="text;html=1;strokeColor=none;fillColor=none;align=center;verticalAlign=middle;whiteSpace=wrap;rounded=0;" vertex="1" parent="1">
          <mxGeometry x="247.5" y="1311.88" width="80" height="30" as="geometry" />
        </mxCell>
        <mxCell id="06lUisDhyo9jP5oIaOcE-22" value="&lt;font style=&quot;font-size: 14px;&quot;&gt;&lt;b&gt;192.168.1.1:80-192.168.1.2:5321&lt;/b&gt;&lt;/font&gt;" style="text;html=1;strokeColor=none;fillColor=none;align=center;verticalAlign=middle;whiteSpace=wrap;rounded=0;" vertex="1" parent="1">
          <mxGeometry x="232.5" y="1271.88" width="255" height="30" as="geometry" />
        </mxCell>
        <mxCell id="06lUisDhyo9jP5oIaOcE-23" value="" style="endArrow=none;dashed=1;html=1;dashPattern=1 3;strokeWidth=2;rounded=0;" edge="1" parent="1" target="06lUisDhyo9jP5oIaOcE-22">
          <mxGeometry width="50" height="50" relative="1" as="geometry">
            <mxPoint x="332.5" y="1321.88" as="sourcePoint" />
            <mxPoint x="382.5" y="1271.88" as="targetPoint" />
          </mxGeometry>
        </mxCell>
        <mxCell id="06lUisDhyo9jP5oIaOcE-24" value="&lt;b&gt;&lt;font style=&quot;font-size: 13px;&quot;&gt;vaule: list&amp;lt;custom_parser *&amp;gt;&lt;/font&gt;&lt;/b&gt;" style="text;html=1;strokeColor=none;fillColor=none;align=center;verticalAlign=middle;whiteSpace=wrap;rounded=0;" vertex="1" parent="1">
          <mxGeometry x="230" y="1360" width="160" height="40" as="geometry" />
        </mxCell>
        <mxCell id="06lUisDhyo9jP5oIaOcE-25" value="" style="rounded=0;whiteSpace=wrap;html=1;rotation=90;" vertex="1" parent="1">
          <mxGeometry x="252.5" y="1445.63" width="117.5" height="142.5" as="geometry" />
        </mxCell>
        <mxCell id="06lUisDhyo9jP5oIaOcE-26" value="" style="endArrow=none;html=1;rounded=0;exitX=0.25;exitY=1;exitDx=0;exitDy=0;entryX=0.25;entryY=0;entryDx=0;entryDy=0;" edge="1" parent="1" source="06lUisDhyo9jP5oIaOcE-25" target="06lUisDhyo9jP5oIaOcE-25">
          <mxGeometry width="50" height="50" relative="1" as="geometry">
            <mxPoint x="385" y="1543.13" as="sourcePoint" />
            <mxPoint x="435" y="1493.13" as="targetPoint" />
          </mxGeometry>
        </mxCell>
        <mxCell id="06lUisDhyo9jP5oIaOcE-27" value="&lt;b&gt;&lt;font style=&quot;font-size: 13px;&quot;&gt;key: string&lt;/font&gt;&lt;/b&gt;" style="text;html=1;strokeColor=none;fillColor=none;align=center;verticalAlign=middle;whiteSpace=wrap;rounded=0;" vertex="1" parent="1">
          <mxGeometry x="245" y="1463.13" width="80" height="30" as="geometry" />
        </mxCell>
        <mxCell id="06lUisDhyo9jP5oIaOcE-28" value="&lt;b&gt;&lt;font style=&quot;font-size: 13px;&quot;&gt;value&lt;/font&gt;&lt;/b&gt;" style="text;html=1;strokeColor=none;fillColor=none;align=center;verticalAlign=middle;whiteSpace=wrap;rounded=0;" vertex="1" parent="1">
          <mxGeometry x="232.5" y="1498.45" width="80" height="36.87" as="geometry" />
        </mxCell>
        <mxCell id="06lUisDhyo9jP5oIaOcE-29" value="" style="endArrow=none;html=1;rounded=0;exitX=1;exitY=0.5;exitDx=0;exitDy=0;" edge="1" parent="1" source="06lUisDhyo9jP5oIaOcE-2" target="06lUisDhyo9jP5oIaOcE-19">
          <mxGeometry width="50" height="50" relative="1" as="geometry">
            <mxPoint x="160" y="1420" as="sourcePoint" />
            <mxPoint x="200" y="1380" as="targetPoint" />
          </mxGeometry>
        </mxCell>
        <mxCell id="06lUisDhyo9jP5oIaOcE-30" value="" style="endArrow=none;html=1;rounded=0;entryX=1;entryY=0.5;entryDx=0;entryDy=0;exitX=0.588;exitY=1.001;exitDx=0;exitDy=0;exitPerimeter=0;" edge="1" parent="1" source="06lUisDhyo9jP5oIaOcE-25" target="06lUisDhyo9jP5oIaOcE-2">
          <mxGeometry width="50" height="50" relative="1" as="geometry">
            <mxPoint x="80" y="1620" as="sourcePoint" />
            <mxPoint x="130" y="1570" as="targetPoint" />
          </mxGeometry>
        </mxCell>
        <mxCell id="06lUisDhyo9jP5oIaOcE-31" value="" style="rounded=0;whiteSpace=wrap;html=1;rotation=90;" vertex="1" parent="1">
          <mxGeometry x="251.25" y="1588.13" width="117.5" height="142.5" as="geometry" />
        </mxCell>
        <mxCell id="06lUisDhyo9jP5oIaOcE-32" value="" style="endArrow=none;html=1;rounded=0;exitX=0.25;exitY=1;exitDx=0;exitDy=0;entryX=0.25;entryY=0;entryDx=0;entryDy=0;" edge="1" parent="1" source="06lUisDhyo9jP5oIaOcE-31" target="06lUisDhyo9jP5oIaOcE-31">
          <mxGeometry width="50" height="50" relative="1" as="geometry">
            <mxPoint x="385" y="1685.63" as="sourcePoint" />
            <mxPoint x="435" y="1635.63" as="targetPoint" />
          </mxGeometry>
        </mxCell>
        <mxCell id="06lUisDhyo9jP5oIaOcE-33" value="&lt;b&gt;&lt;font style=&quot;font-size: 13px;&quot;&gt;key: string&lt;/font&gt;&lt;/b&gt;" style="text;html=1;strokeColor=none;fillColor=none;align=center;verticalAlign=middle;whiteSpace=wrap;rounded=0;" vertex="1" parent="1">
          <mxGeometry x="245" y="1605.63" width="80" height="30" as="geometry" />
        </mxCell>
        <mxCell id="06lUisDhyo9jP5oIaOcE-34" value="&lt;font style=&quot;font-size: 16px;&quot;&gt;.....&lt;/font&gt;" style="text;html=1;strokeColor=none;fillColor=none;align=center;verticalAlign=middle;whiteSpace=wrap;rounded=0;" vertex="1" parent="1">
          <mxGeometry x="255.25" y="1658.13" width="60" height="30" as="geometry" />
        </mxCell>
        <mxCell id="06lUisDhyo9jP5oIaOcE-35" value="" style="endArrow=none;html=1;rounded=0;entryX=1;entryY=0.5;entryDx=0;entryDy=0;exitX=0.5;exitY=1;exitDx=0;exitDy=0;" edge="1" parent="1" source="06lUisDhyo9jP5oIaOcE-31" target="06lUisDhyo9jP5oIaOcE-2">
          <mxGeometry width="50" height="50" relative="1" as="geometry">
            <mxPoint x="140" y="1640" as="sourcePoint" />
            <mxPoint x="190" y="1590" as="targetPoint" />
          </mxGeometry>
        </mxCell>
        <mxCell id="06lUisDhyo9jP5oIaOcE-36" value="" style="endArrow=none;html=1;rounded=0;entryX=0;entryY=0;entryDx=0;entryDy=0;exitX=0.25;exitY=0;exitDx=0;exitDy=0;" edge="1" parent="1" source="06lUisDhyo9jP5oIaOcE-19" target="06lUisDhyo9jP5oIaOcE-1">
          <mxGeometry width="50" height="50" relative="1" as="geometry">
            <mxPoint x="430" y="1390" as="sourcePoint" />
            <mxPoint x="480" y="1340" as="targetPoint" />
          </mxGeometry>
        </mxCell>
        <mxCell id="06lUisDhyo9jP5oIaOcE-37" value="" style="endArrow=none;html=1;rounded=0;entryX=1;entryY=0;entryDx=0;entryDy=0;exitX=0;exitY=1;exitDx=0;exitDy=0;" edge="1" parent="1" source="06lUisDhyo9jP5oIaOcE-1" target="06lUisDhyo9jP5oIaOcE-19">
          <mxGeometry width="50" height="50" relative="1" as="geometry">
            <mxPoint x="420" y="1540" as="sourcePoint" />
            <mxPoint x="470" y="1490" as="targetPoint" />
          </mxGeometry>
        </mxCell>
        <mxCell id="06lUisDhyo9jP5oIaOcE-38" value="&lt;b style=&quot;border-color: var(--border-color); color: rgb(0, 0, 0); font-family: Helvetica; font-size: 12px; font-style: normal; font-variant-ligatures: normal; font-variant-caps: normal; letter-spacing: normal; orphans: 2; text-align: center; text-indent: 0px; text-transform: none; widows: 2; word-spacing: 0px; -webkit-text-stroke-width: 0px; background-color: rgb(251, 251, 251); text-decoration-thickness: initial; text-decoration-style: initial; text-decoration-color: initial;&quot;&gt;&lt;font style=&quot;border-color: var(--border-color); font-size: 13px;&quot;&gt;custom_parser&lt;/font&gt;&lt;/b&gt;" style="text;whiteSpace=wrap;html=1;" vertex="1" parent="1">
          <mxGeometry x="520" y="1260.63" width="130" height="40" as="geometry" />
        </mxCell>
      </root>
    </mxGraphModel>
  </diagram>
</mxfile>
